<svg width="87" height="77" viewBox="0 0 87 77" fill="none" xmlns="http://www.w3.org/2000/svg">
<g filter="url(#filter0_d_2004_616)">
<rect x="2" y="9" width="83" height="58" rx="4" fill="#0000FF"/>
<rect x="2" y="9" width="83" height="58" rx="4" stroke="black" stroke-width="2"/>
</g>
<g filter="url(#filter1_d_2004_616)">
<rect x="2" y="1" width="83" height="58" rx="4" fill="#0074FC"/>
<rect x="2" y="1" width="83" height="58" rx="4" stroke="black" stroke-width="2"/>
</g>
<rect x="5" y="2" width="77" height="3" rx="1.5" fill="#32BBFF"/>
<path d="M32.433 29.142C31.7846 29.5302 31.7846 30.4698 32.433 30.858L49.7363 41.2181C50.4028 41.6171 51.25 41.137 51.25 40.3601L51.25 19.6399C51.25 18.863 50.4028 18.3829 49.7363 18.7819L32.433 29.142Z" fill="white"/>
<defs>
<filter id="filter0_d_2004_616" x="0" y="8" width="87" height="69" filterUnits="userSpaceOnUse" color-interpolation-filters="sRGB">
<feFlood flood-opacity="0" result="BackgroundImageFix"/>
<feColorMatrix in="SourceAlpha" type="matrix" values="0 0 0 0 0 0 0 0 0 0 0 0 0 0 0 0 0 0 127 0" result="hardAlpha"/>
<feOffset dy="8"/>
<feGaussianBlur stdDeviation="0.5"/>
<feComposite in2="hardAlpha" operator="out"/>
<feColorMatrix type="matrix" values="0 0 0 0 0 0 0 0 0 0 0 0 0 0 0 0 0 0 0.35 0"/>
<feBlend mode="normal" in2="BackgroundImageFix" result="effect1_dropShadow_2004_616"/>
<feBlend mode="normal" in="SourceGraphic" in2="effect1_dropShadow_2004_616" result="shape"/>
</filter>
<filter id="filter1_d_2004_616" x="0" y="0" width="87" height="69" filterUnits="userSpaceOnUse" color-interpolation-filters="sRGB">
<feFlood flood-opacity="0" result="BackgroundImageFix"/>
<feColorMatrix in="SourceAlpha" type="matrix" values="0 0 0 0 0 0 0 0 0 0 0 0 0 0 0 0 0 0 127 0" result="hardAlpha"/>
<feOffset dy="8"/>
<feGaussianBlur stdDeviation="0.5"/>
<feComposite in2="hardAlpha" operator="out"/>
<feColorMatrix type="matrix" values="0 0 0 0 0 0 0 0 0 0 0 0 0 0 0 0 0 0 0.35 0"/>
<feBlend mode="normal" in2="BackgroundImageFix" result="effect1_dropShadow_2004_616"/>
<feBlend mode="normal" in="SourceGraphic" in2="effect1_dropShadow_2004_616" result="shape"/>
</filter>
</defs>
</svg>
