<svg width="119" height="108" viewBox="0 0 119 108" fill="none" xmlns="http://www.w3.org/2000/svg">
<g id="LOGO">
<path id="Vector 3" d="M0.699951 68.8786V27.5845L6.20002 20.7019V10.3781H16.7V0.0541992H28.2H60.7001H91.2001H102.7V10.3781H113.2V20.7019L118.7 27.5845V68.8786L112.7 77.236H102.7V87.0683H91.2001V97.3922H80.7001V107.716H61.7002H38.7V97.3922H28.2V87.0683H16.7V77.236H6.70002L0.699951 68.8786Z" fill="#4FF993"/>
<g id="Vector 4">
<path d="M22.7 58.0644V76.7457H30.7V70.3548H37.2V63.9638H59.2H81.2V70.3548H87.7V76.7457H95.7V58.0644H86.2V48.2322H74.7V41.3496H59.2H43.7V48.2322H32.2V58.0644H22.7Z" fill="#003D56"/>
<path d="M38.2 85.1032V79.2038H44.7V72.3212H52.2V79.2038H44.7V85.1032H38.2Z" fill="#003D56"/>
<path d="M81.2 79.2038V85.1032H74.7V79.2038H67.2V72.3212H74.7V79.2038H81.2Z" fill="#003D56"/>
<path d="M53.2 92.969V86.0864H66.2V92.969H53.2Z" fill="#003D56"/>
</g>
</g>
</svg>
