<svg width="1512" height="982" viewBox="0 0 1512 982" fill="none" xmlns="http://www.w3.org/2000/svg">
<rect width="1512" height="982" fill="#6839FF"/>
<rect x="14" y="496" width="456" height="469" rx="4" stroke="black" stroke-width="4"/>
<rect x="14" y="502" width="456" height="238" rx="4" fill="#6839FF" stroke="black" stroke-width="4"/>
<rect x="500.5" y="35.5" width="983" height="795" fill="#0E1323" stroke="black"/>
<rect x="488" y="17" width="1010" height="948" stroke="black" stroke-width="4"/>
<rect x="19" y="14" width="456" height="455" rx="4" stroke="black" stroke-width="4"/>
<g filter="url(#filter0_d_2002_864)">
<rect x="17" y="12" width="460" height="440.64" rx="6" fill="#6839FF"/>
<rect x="19" y="14" width="456" height="436.64" rx="4" stroke="black" stroke-width="4"/>
</g>
<rect x="38.5" y="36.5093" width="416" height="393.034" fill="#0E1323" stroke="black"/>
<line x1="38" y1="39.2461" x2="455" y2="39.2461" stroke="black" stroke-width="2"/>
<line x1="38" y1="47.72" x2="455" y2="47.72" stroke="#002B3C" stroke-width="2"/>
<line x1="38" y1="56.1938" x2="455" y2="56.1938" stroke="#002B3C" stroke-width="2"/>
<line x1="38" y1="64.6677" x2="455" y2="64.6677" stroke="#002B3C" stroke-width="2"/>
<line x1="38" y1="73.1415" x2="455" y2="73.1415" stroke="#002B3C" stroke-width="2"/>
<line x1="38" y1="81.6154" x2="455" y2="81.6154" stroke="#002B3C" stroke-width="2"/>
<line x1="38" y1="90.0892" x2="455" y2="90.0892" stroke="#002B3C" stroke-width="2"/>
<line x1="38" y1="98.5631" x2="455" y2="98.5631" stroke="#002B3C" stroke-width="2"/>
<line x1="38" y1="107.037" x2="455" y2="107.037" stroke="#002B3C" stroke-width="2"/>
<line x1="38" y1="115.511" x2="455" y2="115.511" stroke="#002B3C" stroke-width="2"/>
<line x1="38" y1="123.985" x2="455" y2="123.985" stroke="#002B3C" stroke-width="2"/>
<line x1="38" y1="132.458" x2="455" y2="132.458" stroke="#002B3C" stroke-width="2"/>
<line x1="38" y1="140.932" x2="455" y2="140.932" stroke="#002B3C" stroke-width="2"/>
<line x1="38" y1="149.406" x2="455" y2="149.406" stroke="#002B3C" stroke-width="2"/>
<line x1="38" y1="157.88" x2="455" y2="157.88" stroke="#002B3C" stroke-width="2"/>
<line x1="38" y1="166.354" x2="455" y2="166.354" stroke="#002B3C" stroke-width="2"/>
<line x1="38" y1="174.828" x2="455" y2="174.828" stroke="#002B3C" stroke-width="2"/>
<line x1="38" y1="183.302" x2="455" y2="183.302" stroke="#002B3C" stroke-width="2"/>
<line x1="38" y1="191.775" x2="455" y2="191.775" stroke="#002B3C" stroke-width="2"/>
<line x1="38" y1="200.249" x2="455" y2="200.249" stroke="#002B3C" stroke-width="2"/>
<line x1="38" y1="208.723" x2="455" y2="208.723" stroke="#002B3C" stroke-width="2"/>
<line x1="39" y1="234.145" x2="456" y2="234.145" stroke="#002B3C" stroke-width="2"/>
<line x1="39" y1="242.618" x2="456" y2="242.618" stroke="#002B3C" stroke-width="2"/>
<line x1="39" y1="251.092" x2="456" y2="251.092" stroke="#002B3C" stroke-width="2"/>
<line x1="39" y1="259.566" x2="456" y2="259.566" stroke="#002B3C" stroke-width="2"/>
<line x1="39" y1="268.04" x2="456" y2="268.04" stroke="#002B3C" stroke-width="2"/>
<line x1="39" y1="276.514" x2="456" y2="276.514" stroke="#002B3C" stroke-width="2"/>
<line x1="39" y1="284.988" x2="456" y2="284.988" stroke="#002B3C" stroke-width="2"/>
<line x1="39" y1="293.462" x2="456" y2="293.462" stroke="#002B3C" stroke-width="2"/>
<line x1="39" y1="301.935" x2="456" y2="301.935" stroke="#002B3C" stroke-width="2"/>
<line x1="39" y1="310.409" x2="456" y2="310.409" stroke="#002B3C" stroke-width="2"/>
<line x1="39" y1="318.883" x2="456" y2="318.883" stroke="#002B3C" stroke-width="2"/>
<line x1="39" y1="327.357" x2="456" y2="327.357" stroke="#002B3C" stroke-width="2"/>
<line x1="39" y1="335.831" x2="456" y2="335.831" stroke="#002B3C" stroke-width="2"/>
<line x1="39" y1="344.305" x2="456" y2="344.305" stroke="#002B3C" stroke-width="2"/>
<line x1="39" y1="352.778" x2="456" y2="352.778" stroke="#002B3C" stroke-width="2"/>
<line x1="39" y1="361.252" x2="456" y2="361.252" stroke="#002B3C" stroke-width="2"/>
<line x1="39" y1="369.726" x2="456" y2="369.726" stroke="#002B3C" stroke-width="2"/>
<line x1="39" y1="378.2" x2="456" y2="378.2" stroke="#002B3C" stroke-width="2"/>
<line x1="39" y1="386.674" x2="456" y2="386.674" stroke="#002B3C" stroke-width="2"/>
<line x1="39" y1="395.148" x2="456" y2="395.148" stroke="#002B3C" stroke-width="2"/>
<line x1="39" y1="403.622" x2="456" y2="403.622" stroke="#002B3C" stroke-width="2"/>
<line x1="39" y1="420.569" x2="456" y2="420.569" stroke="#002B3C" stroke-width="2"/>
<line x1="39" y1="412.095" x2="456" y2="412.095" stroke="#002B3C" stroke-width="2"/>
<line x1="38" y1="217.197" x2="455" y2="217.197" stroke="#002B3C" stroke-width="2"/>
<line x1="38" y1="225.671" x2="455" y2="225.671" stroke="#002B3C" stroke-width="2"/>
<defs>
<filter id="filter0_d_2002_864" x="15" y="12" width="464" height="467.64" filterUnits="userSpaceOnUse" color-interpolation-filters="sRGB">
<feFlood flood-opacity="0" result="BackgroundImageFix"/>
<feColorMatrix in="SourceAlpha" type="matrix" values="0 0 0 0 0 0 0 0 0 0 0 0 0 0 0 0 0 0 127 0" result="hardAlpha"/>
<feOffset dy="25"/>
<feGaussianBlur stdDeviation="1"/>
<feComposite in2="hardAlpha" operator="out"/>
<feColorMatrix type="matrix" values="0 0 0 0 0 0 0 0 0 0 0 0 0 0 0 0 0 0 0.45 0"/>
<feBlend mode="normal" in2="BackgroundImageFix" result="effect1_dropShadow_2002_864"/>
<feBlend mode="normal" in="SourceGraphic" in2="effect1_dropShadow_2002_864" result="shape"/>
</filter>
</defs>
</svg>
