<svg width="464" height="468" viewBox="0 0 464 468" fill="none" xmlns="http://www.w3.org/2000/svg">
<rect x="4" y="2" width="456" height="455" rx="4" stroke="black" stroke-width="4"/>
<g filter="url(#filter0_d_2002_986)">
<rect x="2" width="460" height="440.64" rx="6" fill="#6839FF"/>
<rect x="4" y="2" width="456" height="436.64" rx="4" stroke="black" stroke-width="4"/>
</g>
<rect x="23.5" y="24.5092" width="416" height="393.034" fill="#0E1323" stroke="black"/>
<line x1="23" y1="27.2461" x2="440" y2="27.2461" stroke="black" stroke-width="2"/>
<line x1="23" y1="35.72" x2="440" y2="35.72" stroke="#002B3C" stroke-width="2"/>
<line x1="23" y1="44.1938" x2="440" y2="44.1938" stroke="#002B3C" stroke-width="2"/>
<line x1="23" y1="52.6677" x2="440" y2="52.6677" stroke="#002B3C" stroke-width="2"/>
<line x1="23" y1="61.1415" x2="440" y2="61.1415" stroke="#002B3C" stroke-width="2"/>
<line x1="23" y1="69.6154" x2="440" y2="69.6154" stroke="#002B3C" stroke-width="2"/>
<line x1="23" y1="78.0892" x2="440" y2="78.0892" stroke="#002B3C" stroke-width="2"/>
<line x1="23" y1="86.563" x2="440" y2="86.563" stroke="#002B3C" stroke-width="2"/>
<line x1="23" y1="95.0369" x2="440" y2="95.0369" stroke="#002B3C" stroke-width="2"/>
<line x1="23" y1="103.511" x2="440" y2="103.511" stroke="#002B3C" stroke-width="2"/>
<line x1="23" y1="111.985" x2="440" y2="111.985" stroke="#002B3C" stroke-width="2"/>
<line x1="23" y1="120.458" x2="440" y2="120.458" stroke="#002B3C" stroke-width="2"/>
<line x1="23" y1="128.932" x2="440" y2="128.932" stroke="#002B3C" stroke-width="2"/>
<line x1="23" y1="137.406" x2="440" y2="137.406" stroke="#002B3C" stroke-width="2"/>
<line x1="23" y1="145.88" x2="440" y2="145.88" stroke="#002B3C" stroke-width="2"/>
<line x1="23" y1="154.354" x2="440" y2="154.354" stroke="#002B3C" stroke-width="2"/>
<line x1="23" y1="162.828" x2="440" y2="162.828" stroke="#002B3C" stroke-width="2"/>
<line x1="23" y1="171.302" x2="440" y2="171.302" stroke="#002B3C" stroke-width="2"/>
<line x1="23" y1="179.775" x2="440" y2="179.775" stroke="#002B3C" stroke-width="2"/>
<line x1="23" y1="188.249" x2="440" y2="188.249" stroke="#002B3C" stroke-width="2"/>
<line x1="23" y1="196.723" x2="440" y2="196.723" stroke="#002B3C" stroke-width="2"/>
<line x1="24" y1="222.145" x2="441" y2="222.145" stroke="#002B3C" stroke-width="2"/>
<line x1="24" y1="230.618" x2="441" y2="230.618" stroke="#002B3C" stroke-width="2"/>
<line x1="24" y1="239.092" x2="441" y2="239.092" stroke="#002B3C" stroke-width="2"/>
<line x1="24" y1="247.566" x2="441" y2="247.566" stroke="#002B3C" stroke-width="2"/>
<line x1="24" y1="256.04" x2="441" y2="256.04" stroke="#002B3C" stroke-width="2"/>
<line x1="24" y1="264.514" x2="441" y2="264.514" stroke="#002B3C" stroke-width="2"/>
<line x1="24" y1="272.988" x2="441" y2="272.988" stroke="#002B3C" stroke-width="2"/>
<line x1="24" y1="281.462" x2="441" y2="281.462" stroke="#002B3C" stroke-width="2"/>
<line x1="24" y1="289.935" x2="441" y2="289.935" stroke="#002B3C" stroke-width="2"/>
<line x1="24" y1="298.409" x2="441" y2="298.409" stroke="#002B3C" stroke-width="2"/>
<line x1="24" y1="306.883" x2="441" y2="306.883" stroke="#002B3C" stroke-width="2"/>
<line x1="24" y1="315.357" x2="441" y2="315.357" stroke="#002B3C" stroke-width="2"/>
<line x1="24" y1="323.831" x2="441" y2="323.831" stroke="#002B3C" stroke-width="2"/>
<line x1="24" y1="332.305" x2="441" y2="332.305" stroke="#002B3C" stroke-width="2"/>
<line x1="24" y1="340.778" x2="441" y2="340.778" stroke="#002B3C" stroke-width="2"/>
<line x1="24" y1="349.252" x2="441" y2="349.252" stroke="#002B3C" stroke-width="2"/>
<line x1="24" y1="357.726" x2="441" y2="357.726" stroke="#002B3C" stroke-width="2"/>
<line x1="24" y1="366.2" x2="441" y2="366.2" stroke="#002B3C" stroke-width="2"/>
<line x1="24" y1="374.674" x2="441" y2="374.674" stroke="#002B3C" stroke-width="2"/>
<line x1="24" y1="383.148" x2="441" y2="383.148" stroke="#002B3C" stroke-width="2"/>
<line x1="24" y1="391.622" x2="441" y2="391.622" stroke="#002B3C" stroke-width="2"/>
<line x1="24" y1="408.569" x2="441" y2="408.569" stroke="#002B3C" stroke-width="2"/>
<line x1="24" y1="400.095" x2="441" y2="400.095" stroke="#002B3C" stroke-width="2"/>
<line x1="23" y1="205.197" x2="440" y2="205.197" stroke="#002B3C" stroke-width="2"/>
<line x1="23" y1="213.671" x2="440" y2="213.671" stroke="#002B3C" stroke-width="2"/>
<defs>
<filter id="filter0_d_2002_986" x="0" y="0" width="464" height="467.64" filterUnits="userSpaceOnUse" color-interpolation-filters="sRGB">
<feFlood flood-opacity="0" result="BackgroundImageFix"/>
<feColorMatrix in="SourceAlpha" type="matrix" values="0 0 0 0 0 0 0 0 0 0 0 0 0 0 0 0 0 0 127 0" result="hardAlpha"/>
<feOffset dy="25"/>
<feGaussianBlur stdDeviation="1"/>
<feComposite in2="hardAlpha" operator="out"/>
<feColorMatrix type="matrix" values="0 0 0 0 0 0 0 0 0 0 0 0 0 0 0 0 0 0 0.45 0"/>
<feBlend mode="normal" in2="BackgroundImageFix" result="effect1_dropShadow_2002_986"/>
<feBlend mode="normal" in="SourceGraphic" in2="effect1_dropShadow_2002_986" result="shape"/>
</filter>
</defs>
</svg>
