<svg width="423" height="99" viewBox="0 0 423 99" fill="none" xmlns="http://www.w3.org/2000/svg">
<rect x="5.5" y="1.5" width="414" height="87" rx="2.5" fill="#00364C" stroke="black" stroke-width="3"/>
<line x1="7" y1="8" x2="418" y2="8" stroke="#002B3C" stroke-width="2"/>
<line x1="7" y1="14" x2="418" y2="14" stroke="#002B3C" stroke-width="2"/>
<line x1="7" y1="20" x2="418" y2="20" stroke="#002B3C" stroke-width="2"/>
<line x1="7" y1="26" x2="418" y2="26" stroke="#002B3C" stroke-width="2"/>
<line x1="7" y1="32" x2="418" y2="32" stroke="#002B3C" stroke-width="2"/>
<line x1="7" y1="38" x2="418" y2="38" stroke="#002B3C" stroke-width="2"/>
<line x1="7" y1="44" x2="418" y2="44" stroke="#002B3C" stroke-width="2"/>
<line x1="7" y1="50" x2="418" y2="50" stroke="#002B3C" stroke-width="2"/>
<line x1="7" y1="56" x2="418" y2="56" stroke="#002B3C" stroke-width="2"/>
<line x1="7" y1="62" x2="418" y2="62" stroke="#002B3C" stroke-width="2"/>
<line x1="7" y1="68" x2="418" y2="68" stroke="#002B3C" stroke-width="2"/>
<line x1="7" y1="74" x2="418" y2="74" stroke="#002B3C" stroke-width="2"/>
<line x1="7" y1="80" x2="418" y2="80" stroke="#002B3C" stroke-width="2"/>
<line x1="7" y1="86" x2="418" y2="86" stroke="#002B3C" stroke-width="2"/>
<line x1="7" y1="15" x2="418" y2="15" stroke="black" stroke-width="10"/>
<line x1="7" y1="6.5" x2="418" y2="6.5" stroke="#0000B9" stroke-width="7"/>
<rect x="5.5" y="1.5" width="414" height="87" rx="2.5" fill="#00364C" stroke="black" stroke-width="3"/>
<line x1="7" y1="8" x2="418" y2="8" stroke="#002B3C" stroke-width="2"/>
<line x1="7" y1="14" x2="418" y2="14" stroke="#002B3C" stroke-width="2"/>
<line x1="7" y1="20" x2="418" y2="20" stroke="#002B3C" stroke-width="2"/>
<line x1="7" y1="26" x2="418" y2="26" stroke="#002B3C" stroke-width="2"/>
<line x1="7" y1="32" x2="418" y2="32" stroke="#002B3C" stroke-width="2"/>
<line x1="7" y1="38" x2="418" y2="38" stroke="#002B3C" stroke-width="2"/>
<line x1="7" y1="44" x2="418" y2="44" stroke="#002B3C" stroke-width="2"/>
<line x1="7" y1="50" x2="418" y2="50" stroke="#002B3C" stroke-width="2"/>
<line x1="7" y1="56" x2="418" y2="56" stroke="#002B3C" stroke-width="2"/>
<line x1="7" y1="62" x2="418" y2="62" stroke="#002B3C" stroke-width="2"/>
<line x1="7" y1="68" x2="418" y2="68" stroke="#002B3C" stroke-width="2"/>
<line x1="7" y1="74" x2="418" y2="74" stroke="#002B3C" stroke-width="2"/>
<line x1="7" y1="80" x2="418" y2="80" stroke="#002B3C" stroke-width="2"/>
<line x1="7" y1="86" x2="418" y2="86" stroke="#002B3C" stroke-width="2"/>
<line x1="7" y1="15" x2="418" y2="15" stroke="black" stroke-width="10"/>
<line x1="7" y1="6.5" x2="418" y2="6.5" stroke="#0000B9" stroke-width="7"/>
<g filter="url(#filter0_d_2002_1042)">
<path d="M55.5 5C55.5 3.067 53.933 1.5 52 1.5H3.5V88.5H52C53.933 88.5 55.5 86.933 55.5 85V5Z" fill="#0000FF" stroke="black" stroke-width="3"/>
<path d="M55.5 5C55.5 3.067 53.933 1.5 52 1.5H3.5V81.5H52C53.933 81.5 55.5 79.933 55.5 78V5Z" fill="#0074FC" stroke="black" stroke-width="3"/>
<line x1="6" y1="5" x2="53" y2="5" stroke="#32BBFF" stroke-width="2"/>
<path d="M19 50L30.3143 40L41 50" stroke="#0000FF" stroke-width="3.5"/>
</g>
<g filter="url(#filter1_d_2002_1042)">
<path d="M55.5 5C55.5 3.067 53.933 1.5 52 1.5H3.5V88.5H52C53.933 88.5 55.5 86.933 55.5 85V5Z" fill="#0000FF" stroke="black" stroke-width="3"/>
<path d="M55.5 5C55.5 3.067 53.933 1.5 52 1.5H3.5V81.5H52C53.933 81.5 55.5 79.933 55.5 78V5Z" fill="#0074FC" stroke="black" stroke-width="3"/>
<line x1="6" y1="5" x2="53" y2="5" stroke="#32BBFF" stroke-width="2"/>
<path d="M19 50L30.3143 40L41 50" stroke="#0000FF" stroke-width="3.5"/>
</g>
<g filter="url(#filter2_d_2002_1042)">
<path d="M367.5 5C367.5 3.067 369.067 1.5 371 1.5H419.5V88.5H371C369.067 88.5 367.5 86.933 367.5 85V5Z" fill="#0000FF" stroke="black" stroke-width="3"/>
<path d="M367.5 5C367.5 3.067 369.067 1.5 371 1.5H419.5V81.5H371C369.067 81.5 367.5 79.933 367.5 78V5Z" fill="#0074FC" stroke="black" stroke-width="3"/>
<path d="M382 40L393.314 50L404 40" stroke="#0000FF" stroke-width="3.5"/>
<line x1="370" y1="5" x2="417" y2="5" stroke="#32BBFF" stroke-width="2"/>
</g>
<g filter="url(#filter3_d_2002_1042)">
<path d="M367.5 5C367.5 3.067 369.067 1.5 371 1.5H419.5V88.5H371C369.067 88.5 367.5 86.933 367.5 85V5Z" fill="#0000FF" stroke="black" stroke-width="3"/>
<path d="M367.5 5C367.5 3.067 369.067 1.5 371 1.5H419.5V81.5H371C369.067 81.5 367.5 79.933 367.5 78V5Z" fill="#0074FC" stroke="black" stroke-width="3"/>
<path d="M382 40L393.314 50L404 40" stroke="#0000FF" stroke-width="3.5"/>
<line x1="370" y1="5" x2="417" y2="5" stroke="#32BBFF" stroke-width="2"/>
</g>
<defs>
<filter id="filter0_d_2002_1042" x="0" y="0" width="59" height="99" filterUnits="userSpaceOnUse" color-interpolation-filters="sRGB">
<feFlood flood-opacity="0" result="BackgroundImageFix"/>
<feColorMatrix in="SourceAlpha" type="matrix" values="0 0 0 0 0 0 0 0 0 0 0 0 0 0 0 0 0 0 127 0" result="hardAlpha"/>
<feOffset dy="7"/>
<feGaussianBlur stdDeviation="1"/>
<feComposite in2="hardAlpha" operator="out"/>
<feColorMatrix type="matrix" values="0 0 0 0 0 0 0 0 0 0 0 0 0 0 0 0 0 0 0.45 0"/>
<feBlend mode="normal" in2="BackgroundImageFix" result="effect1_dropShadow_2002_1042"/>
<feBlend mode="normal" in="SourceGraphic" in2="effect1_dropShadow_2002_1042" result="shape"/>
</filter>
<filter id="filter1_d_2002_1042" x="0" y="0" width="59" height="99" filterUnits="userSpaceOnUse" color-interpolation-filters="sRGB">
<feFlood flood-opacity="0" result="BackgroundImageFix"/>
<feColorMatrix in="SourceAlpha" type="matrix" values="0 0 0 0 0 0 0 0 0 0 0 0 0 0 0 0 0 0 127 0" result="hardAlpha"/>
<feOffset dy="7"/>
<feGaussianBlur stdDeviation="1"/>
<feComposite in2="hardAlpha" operator="out"/>
<feColorMatrix type="matrix" values="0 0 0 0 0 0 0 0 0 0 0 0 0 0 0 0 0 0 0.45 0"/>
<feBlend mode="normal" in2="BackgroundImageFix" result="effect1_dropShadow_2002_1042"/>
<feBlend mode="normal" in="SourceGraphic" in2="effect1_dropShadow_2002_1042" result="shape"/>
</filter>
<filter id="filter2_d_2002_1042" x="364" y="0" width="59" height="99" filterUnits="userSpaceOnUse" color-interpolation-filters="sRGB">
<feFlood flood-opacity="0" result="BackgroundImageFix"/>
<feColorMatrix in="SourceAlpha" type="matrix" values="0 0 0 0 0 0 0 0 0 0 0 0 0 0 0 0 0 0 127 0" result="hardAlpha"/>
<feOffset dy="7"/>
<feGaussianBlur stdDeviation="1"/>
<feComposite in2="hardAlpha" operator="out"/>
<feColorMatrix type="matrix" values="0 0 0 0 0 0 0 0 0 0 0 0 0 0 0 0 0 0 0.45 0"/>
<feBlend mode="normal" in2="BackgroundImageFix" result="effect1_dropShadow_2002_1042"/>
<feBlend mode="normal" in="SourceGraphic" in2="effect1_dropShadow_2002_1042" result="shape"/>
</filter>
<filter id="filter3_d_2002_1042" x="364" y="0" width="59" height="99" filterUnits="userSpaceOnUse" color-interpolation-filters="sRGB">
<feFlood flood-opacity="0" result="BackgroundImageFix"/>
<feColorMatrix in="SourceAlpha" type="matrix" values="0 0 0 0 0 0 0 0 0 0 0 0 0 0 0 0 0 0 127 0" result="hardAlpha"/>
<feOffset dy="7"/>
<feGaussianBlur stdDeviation="1"/>
<feComposite in2="hardAlpha" operator="out"/>
<feColorMatrix type="matrix" values="0 0 0 0 0 0 0 0 0 0 0 0 0 0 0 0 0 0 0.45 0"/>
<feBlend mode="normal" in2="BackgroundImageFix" result="effect1_dropShadow_2002_1042"/>
<feBlend mode="normal" in="SourceGraphic" in2="effect1_dropShadow_2002_1042" result="shape"/>
</filter>
</defs>
</svg>
